{"title":"The Station Agent (2003) WEB-DL x264 aac + Ukr sub","uid":9317860,"size":701046117,"categoryP":"video","categoryS":"movies","magnet":"?xt=urn:btih:f6a32b94bdd653b630fd24411f8fcc760b1515d1&amp;dn=The+Station+Agent+%282003%29+WEB-DL+x264+aac+%2B+Ukr+sub&amp;tr=udp%3A%2F%2Ftracker.openbittorrent.com%3A80&amp;tr=udp%3A%2F%2Fopen.demonii.com%3A1337&amp;tr=udp%3A%2F%2Ftracker.coppersurfer.tk%3A6969&amp;tr=udp%3A%2F%2Fexodus.desync.com%3A6969","seeders":0,"leechers":0,"uploader":"orysia","files":-1,"time":1386496300,"description":"Comedy | Drama\n\nDirector&amp; Writer: Thomas McCarthy\nStars: Peter Dinklage, Patricia Clarkson, Bobby Cannavale\n\nWhen his only friend dies, a man born with dwarfism moves to rural New Jersey to live a life of solitude, only to meet a chatty hot dog vendor and a woman dealing with her own personal loss.\n\nFormat                           : MPEG-4\nFormat profile                   : Base Media\nCodec ID                         : isom\nFile size                        : 669 MiB\nDuration                         : 1h 29mn\nOverall bit rate                 : 1 044 Kbps\nMovie name                       : The Station Agent*2003 /Sjanyk\nGenre                            : Comedy\nEncoded date                     : 2003\nTagged date                      : UTC 2013-12-07 07:42:24\nWriting application              : Yamb 2.0.0.8 [http://yamb.unite-video.com]\nComment                          : http://cinemasterpiece(dot)wordpress(dot)com/\nXtra                             : WM/Director\n\nVideo\nID                               : 1\nFormat                           : AVC\nFormat/Info                      : Advanced Video Codec\nFormat profile                   : &lt;a class=&quot;__cf_email__&quot; href=&quot;/cdn-cgi/l/email-protection&quot; data-cfemail=&quot;e3ae828a8da3afd0cdd2&quot;&gt;[email&amp;#160;protected]&lt;/a&gt;&lt;script data-cfhash='f9e31' type=&quot;text/javascript&quot;&gt;\n/* &lt;![CDATA[ */!function(){try{var t=&quot;currentScript&quot;in document?document.currentScript:function(){for(var t=document.getElementsByTagName(&quot;script&quot;),e=t.length;e--;)if(t[e].getAttribute(&quot;data-cfhash&quot;))return t[e]}();if(t&amp;&amp;t.previousSibling){var e,r,n,i,c=t.previousSibling,a=c.getAttribute(&quot;data-cfemail&quot;);if(a){for(e=&quot;&quot;,r=parseInt(a.substr(0,2),16),n=2;a.length-n;n+=2)i=parseInt(a.substr(n,2),16)^r,e+=String.fromCharCode(i);e=document.createTextNode(e),c.parentNode.replaceChild(e,c)}t.parentNode.removeChild(t);}}catch(u){}}()/* ]]&gt; */&lt;/script&gt;\nFormat settings, CABAC           : Yes\nFormat settings, ReFrames        : 5 frames\nCodec ID                         : avc1\nCodec ID/Info                    : Advanced Video Coding\nDuration                         : 1h 29mn\nBit rate mode                    : Variable\nBit rate                         : 945 Kbps\nMaximum bit rate                 : 6 185 Kbps\nWidth                            : 800 pixels\nHeight                           : 500 pixels\nDisplay aspect ratio             : 1.600\nFrame rate mode                  : Constant\nFrame rate                       : 23.976 fps\nColor space                      : YUV\nChroma subsampling               : 4:2:0\nBit depth                        : 8 bits\nScan type                        : Progressive\nBits/(Pixel*Frame)               : 0.099\nStream size                      : 605 MiB (91%)\nWriting library                  : x264 core 138 r2358 9e941d1\nEncoding settings                : cabac=1 / ref=5 / deblock=1:-1:-1 / analyse=0x1:0x111 / me=umh / subme=8 / psy=1 / psy_rd=1.00:0.00 / mixed_ref=1 / me_range=16 / chroma_me=1 / trellis=1 / 8x8dct=0 / cqm=0 / deadzone=21,11 / fast_pskip=1 / chroma_qp_offset=-2 / threads=3 / lookahead_threads=1 / sliced_threads=0 / nr=0 / decimate=1 / interlaced=0 / bluray_compat=0 / constrained_intra=0 / bframes=4 / b_pyramid=2 / b_adapt=2 / b_bias=0 / direct=3 / weightb=1 / open_gop=0 / weightp=2 / keyint=240 / keyint_min=23 / scenecut=30 / intra_refresh=0 / rc_lookahead=50 / rc=2pass / mbtree=1 / bitrate=945 / ratetol=1.0 / qcomp=0.60 / qpmin=0 / qpmax=69 / qpstep=4 / cplxblur=20.0 / qblur=0.5 / vbv_maxrate=14000 / vbv_bufsize=14000 / nal_hrd=none / ip_ratio=1.40 / aq=1:1.00\nEncoded date                     : UTC 2013-12-07 07:42:24\nTagged date                      : UTC 2013-12-07 07:42:51\n\nAudio\nID                               : 2\nFormat                           : AAC\nFormat/Info                      : Advanced Audio Codec\nFormat version                   : Version 4\nFormat profile                   : LC\nFormat settings, SBR             : No\nCodec ID                         : 40\nDuration                         : 1h 29mn\nBit rate mode                    : Variable\nBit rate                         : 96.0 Kbps\nMaximum bit rate                 : 140 Kbps\nChannel(s)                       : 2 channels\nChannel positions                : Front: L R\nSampling rate                    : 48.0 KHz\nStream size                      : 60.7 MiB (9%)\nLanguage                         : English\nEncoded date                     : UTC 2013-12-07 07:42:48\nTagged date                      : UTC 2013-12-07 07:42:51\n\nUkrainian subtitles are HARDCODED\n\nScreenshots: &lt;a href=&quot;\nhttp://img703.imageshack.us/img703/3076/d7g1.png&quot; rel=&quot;nofollow&quot; target=&quot;_NEW&quot;&gt;\nhttp://img703.imageshack.us/img703/3076/d7g1.png&lt;/a&gt; &lt;a href=&quot;\nhttp://img29.imageshack.us/img29/5065/3xn2.png&quot; rel=&quot;nofollow&quot; target=&quot;_NEW&quot;&gt;\nhttp://img29.imageshack.us/img29/5065/3xn2.png&lt;/a&gt; &lt;a href=&quot;\nhttp://img196.imageshack.us/img196/7509/fowg.png&quot; rel=&quot;nofollow&quot; target=&quot;_NEW&quot;&gt;\nhttp://img196.imageshack.us/img196/7509/fowg.png&lt;/a&gt; &lt;a href=&quot;\nhttp://img571.imageshack.us/img571/1696/yb9o.png&quot; rel=&quot;nofollow&quot; target=&quot;_NEW&quot;&gt;\nhttp://img571.imageshack.us/img571/1696/yb9o.png&lt;/a&gt; &lt;a href=&quot;\nhttp://img811.imageshack.us/img811/8571/p9bp.png&quot; rel=&quot;nofollow&quot; target=&quot;_NEW&quot;&gt;\nhttp://img811.imageshack.us/img811/8571/p9bp.png&lt;/a&gt; &lt;a href=&quot;\nhttp://img844.imageshack.us/img844/1306/acve.png&quot; rel=&quot;nofollow&quot; target=&quot;_NEW&quot;&gt;\nhttp://img844.imageshack.us/img844/1306/acve.png&lt;/a&gt;","torrent":{"xt":"urn:btih:f6a32b94bdd653b630fd24411f8fcc760b1515d1","amp;dn":"The+Station+Agent+%282003%29+WEB-DL+x264+aac+%2B+Ukr+sub","amp;tr":["udp%3A%2F%2Ftracker.openbittorrent.com%3A80","udp%3A%2F%2Fopen.demonii.com%3A1337","udp%3A%2F%2Ftracker.coppersurfer.tk%3A6969","udp%3A%2F%2Fexodus.desync.com%3A6969"],"infoHash":"f6a32b94bdd653b630fd24411f8fcc760b1515d1","infoHashBuffer":{"type":"Buffer","data":[246,163,43,148,189,214,83,182,48,253,36,65,31,143,204,118,11,21,21,209]},"announce":[],"urlList":[]}}